<mxfile host="app.diagrams.net" modified="2024-06-20T19:20:15.634Z" agent="Mozilla/5.0 (Windows NT 10.0; Win64; x64) AppleWebKit/537.36 (KHTML, like Gecko) Chrome/123.0.0.0 Safari/537.36 OPR/109.0.0.0 (Edition std-1)" etag="dDNpRiLoNKGRi90_aQf3" version="23.0.2" type="device">
  <diagram name="Página-1" id="G5Ln0D2b9vEsbkWDzeTY">
    <mxGraphModel dx="1984" dy="728" grid="1" gridSize="10" guides="1" tooltips="1" connect="1" arrows="1" fold="1" page="1" pageScale="1" pageWidth="827" pageHeight="1169" math="0" shadow="0">
      <root>
        <mxCell id="0" />
        <mxCell id="1" parent="0" />
        <mxCell id="VKCqac1NkRgXkJCxuq_p-1" value="&lt;div&gt;Mesa&lt;/div&gt;" style="rounded=0;whiteSpace=wrap;html=1;" vertex="1" parent="1">
          <mxGeometry x="115" y="210" width="120" height="60" as="geometry" />
        </mxCell>
        <mxCell id="VKCqac1NkRgXkJCxuq_p-2" style="edgeStyle=orthogonalEdgeStyle;rounded=0;orthogonalLoop=1;jettySize=auto;html=1;exitX=0.5;exitY=1;exitDx=0;exitDy=0;" edge="1" parent="1" source="VKCqac1NkRgXkJCxuq_p-3">
          <mxGeometry relative="1" as="geometry">
            <mxPoint x="175" y="210" as="targetPoint" />
            <Array as="points">
              <mxPoint x="245" y="190" />
              <mxPoint x="175" y="190" />
            </Array>
          </mxGeometry>
        </mxCell>
        <mxCell id="VKCqac1NkRgXkJCxuq_p-3" value="reservado" style="ellipse;whiteSpace=wrap;html=1;" vertex="1" parent="1">
          <mxGeometry x="205" y="120" width="80" height="60" as="geometry" />
        </mxCell>
        <mxCell id="VKCqac1NkRgXkJCxuq_p-4" style="edgeStyle=orthogonalEdgeStyle;rounded=0;orthogonalLoop=1;jettySize=auto;html=1;exitX=0.5;exitY=1;exitDx=0;exitDy=0;entryX=0.5;entryY=0;entryDx=0;entryDy=0;" edge="1" parent="1" source="VKCqac1NkRgXkJCxuq_p-5" target="VKCqac1NkRgXkJCxuq_p-1">
          <mxGeometry relative="1" as="geometry">
            <Array as="points">
              <mxPoint x="105" y="190" />
              <mxPoint x="175" y="190" />
            </Array>
          </mxGeometry>
        </mxCell>
        <mxCell id="VKCqac1NkRgXkJCxuq_p-5" value="quant_pessoa" style="ellipse;whiteSpace=wrap;html=1;" vertex="1" parent="1">
          <mxGeometry x="65" y="120" width="80" height="60" as="geometry" />
        </mxCell>
        <mxCell id="VKCqac1NkRgXkJCxuq_p-6" style="edgeStyle=orthogonalEdgeStyle;rounded=0;orthogonalLoop=1;jettySize=auto;html=1;entryX=0.5;entryY=0;entryDx=0;entryDy=0;" edge="1" parent="1" source="VKCqac1NkRgXkJCxuq_p-7" target="VKCqac1NkRgXkJCxuq_p-27">
          <mxGeometry relative="1" as="geometry" />
        </mxCell>
        <mxCell id="VKCqac1NkRgXkJCxuq_p-89" style="edgeStyle=orthogonalEdgeStyle;rounded=0;orthogonalLoop=1;jettySize=auto;html=1;entryX=0;entryY=0.5;entryDx=0;entryDy=0;" edge="1" parent="1" source="VKCqac1NkRgXkJCxuq_p-7" target="VKCqac1NkRgXkJCxuq_p-88">
          <mxGeometry relative="1" as="geometry" />
        </mxCell>
        <mxCell id="VKCqac1NkRgXkJCxuq_p-7" value="Cliente" style="rounded=0;whiteSpace=wrap;html=1;" vertex="1" parent="1">
          <mxGeometry x="395" y="210" width="120" height="60" as="geometry" />
        </mxCell>
        <mxCell id="VKCqac1NkRgXkJCxuq_p-8" style="edgeStyle=orthogonalEdgeStyle;rounded=0;orthogonalLoop=1;jettySize=auto;html=1;entryX=0.5;entryY=0;entryDx=0;entryDy=0;" edge="1" parent="1" source="VKCqac1NkRgXkJCxuq_p-9" target="VKCqac1NkRgXkJCxuq_p-7">
          <mxGeometry relative="1" as="geometry">
            <Array as="points">
              <mxPoint x="405" y="190" />
              <mxPoint x="455" y="190" />
            </Array>
          </mxGeometry>
        </mxCell>
        <mxCell id="VKCqac1NkRgXkJCxuq_p-9" value="nome" style="ellipse;whiteSpace=wrap;html=1;" vertex="1" parent="1">
          <mxGeometry x="365" y="120" width="80" height="60" as="geometry" />
        </mxCell>
        <mxCell id="VKCqac1NkRgXkJCxuq_p-10" style="edgeStyle=orthogonalEdgeStyle;rounded=0;orthogonalLoop=1;jettySize=auto;html=1;entryX=0.5;entryY=0;entryDx=0;entryDy=0;" edge="1" parent="1" source="VKCqac1NkRgXkJCxuq_p-11" target="VKCqac1NkRgXkJCxuq_p-7">
          <mxGeometry relative="1" as="geometry">
            <Array as="points">
              <mxPoint x="505" y="190" />
              <mxPoint x="455" y="190" />
            </Array>
          </mxGeometry>
        </mxCell>
        <mxCell id="VKCqac1NkRgXkJCxuq_p-11" value="nº tel" style="ellipse;whiteSpace=wrap;html=1;" vertex="1" parent="1">
          <mxGeometry x="465" y="120" width="80" height="60" as="geometry" />
        </mxCell>
        <mxCell id="VKCqac1NkRgXkJCxuq_p-12" style="edgeStyle=orthogonalEdgeStyle;rounded=0;orthogonalLoop=1;jettySize=auto;html=1;" edge="1" parent="1" source="VKCqac1NkRgXkJCxuq_p-13">
          <mxGeometry relative="1" as="geometry">
            <mxPoint x="175" y="210" as="targetPoint" />
          </mxGeometry>
        </mxCell>
        <mxCell id="VKCqac1NkRgXkJCxuq_p-13" value="identificação" style="ellipse;whiteSpace=wrap;html=1;" vertex="1" parent="1">
          <mxGeometry x="135" y="80" width="80" height="60" as="geometry" />
        </mxCell>
        <mxCell id="VKCqac1NkRgXkJCxuq_p-14" value="Reserva" style="rounded=0;whiteSpace=wrap;html=1;" vertex="1" parent="1">
          <mxGeometry x="395" y="380" width="120" height="60" as="geometry" />
        </mxCell>
        <mxCell id="VKCqac1NkRgXkJCxuq_p-15" style="edgeStyle=orthogonalEdgeStyle;rounded=0;orthogonalLoop=1;jettySize=auto;html=1;" edge="1" parent="1" source="VKCqac1NkRgXkJCxuq_p-16" target="VKCqac1NkRgXkJCxuq_p-14">
          <mxGeometry relative="1" as="geometry">
            <Array as="points">
              <mxPoint x="405" y="460" />
              <mxPoint x="455" y="460" />
            </Array>
          </mxGeometry>
        </mxCell>
        <mxCell id="VKCqac1NkRgXkJCxuq_p-16" value="data_hora" style="ellipse;whiteSpace=wrap;html=1;" vertex="1" parent="1">
          <mxGeometry x="365" y="470" width="80" height="60" as="geometry" />
        </mxCell>
        <mxCell id="VKCqac1NkRgXkJCxuq_p-17" style="edgeStyle=orthogonalEdgeStyle;rounded=0;orthogonalLoop=1;jettySize=auto;html=1;entryX=0.5;entryY=1;entryDx=0;entryDy=0;" edge="1" parent="1" source="VKCqac1NkRgXkJCxuq_p-18" target="VKCqac1NkRgXkJCxuq_p-14">
          <mxGeometry relative="1" as="geometry">
            <Array as="points">
              <mxPoint x="505" y="460" />
              <mxPoint x="455" y="460" />
            </Array>
          </mxGeometry>
        </mxCell>
        <mxCell id="VKCqac1NkRgXkJCxuq_p-18" value="aceitado" style="ellipse;whiteSpace=wrap;html=1;" vertex="1" parent="1">
          <mxGeometry x="465" y="470" width="80" height="60" as="geometry" />
        </mxCell>
        <mxCell id="VKCqac1NkRgXkJCxuq_p-19" style="edgeStyle=orthogonalEdgeStyle;rounded=0;orthogonalLoop=1;jettySize=auto;html=1;entryX=0;entryY=0.5;entryDx=0;entryDy=0;" edge="1" parent="1" source="VKCqac1NkRgXkJCxuq_p-21" target="VKCqac1NkRgXkJCxuq_p-23">
          <mxGeometry relative="1" as="geometry" />
        </mxCell>
        <mxCell id="VKCqac1NkRgXkJCxuq_p-20" style="edgeStyle=orthogonalEdgeStyle;rounded=0;orthogonalLoop=1;jettySize=auto;html=1;entryX=0.5;entryY=1;entryDx=0;entryDy=0;" edge="1" parent="1" source="VKCqac1NkRgXkJCxuq_p-21" target="VKCqac1NkRgXkJCxuq_p-25">
          <mxGeometry relative="1" as="geometry" />
        </mxCell>
        <mxCell id="VKCqac1NkRgXkJCxuq_p-105" style="edgeStyle=orthogonalEdgeStyle;rounded=0;orthogonalLoop=1;jettySize=auto;html=1;entryX=1;entryY=0.5;entryDx=0;entryDy=0;" edge="1" parent="1" source="VKCqac1NkRgXkJCxuq_p-21" target="VKCqac1NkRgXkJCxuq_p-104">
          <mxGeometry relative="1" as="geometry" />
        </mxCell>
        <mxCell id="VKCqac1NkRgXkJCxuq_p-21" value="Administrador" style="rounded=0;whiteSpace=wrap;html=1;" vertex="1" parent="1">
          <mxGeometry x="115" y="380" width="120" height="60" as="geometry" />
        </mxCell>
        <mxCell id="VKCqac1NkRgXkJCxuq_p-22" style="edgeStyle=orthogonalEdgeStyle;rounded=0;orthogonalLoop=1;jettySize=auto;html=1;entryX=0;entryY=0.5;entryDx=0;entryDy=0;" edge="1" parent="1" source="VKCqac1NkRgXkJCxuq_p-23" target="VKCqac1NkRgXkJCxuq_p-14">
          <mxGeometry relative="1" as="geometry" />
        </mxCell>
        <mxCell id="VKCqac1NkRgXkJCxuq_p-23" value="aceitar" style="rhombus;whiteSpace=wrap;html=1;" vertex="1" parent="1">
          <mxGeometry x="285" y="380" width="80" height="60" as="geometry" />
        </mxCell>
        <mxCell id="VKCqac1NkRgXkJCxuq_p-24" style="edgeStyle=orthogonalEdgeStyle;rounded=0;orthogonalLoop=1;jettySize=auto;html=1;entryX=0.5;entryY=1;entryDx=0;entryDy=0;" edge="1" parent="1" source="VKCqac1NkRgXkJCxuq_p-25" target="VKCqac1NkRgXkJCxuq_p-1">
          <mxGeometry relative="1" as="geometry" />
        </mxCell>
        <mxCell id="VKCqac1NkRgXkJCxuq_p-25" value="verificar" style="rhombus;whiteSpace=wrap;html=1;" vertex="1" parent="1">
          <mxGeometry x="135" y="300" width="80" height="50" as="geometry" />
        </mxCell>
        <mxCell id="VKCqac1NkRgXkJCxuq_p-26" style="edgeStyle=orthogonalEdgeStyle;rounded=0;orthogonalLoop=1;jettySize=auto;html=1;entryX=0.5;entryY=0;entryDx=0;entryDy=0;" edge="1" parent="1" source="VKCqac1NkRgXkJCxuq_p-27" target="VKCqac1NkRgXkJCxuq_p-14">
          <mxGeometry relative="1" as="geometry" />
        </mxCell>
        <mxCell id="VKCqac1NkRgXkJCxuq_p-27" value="faz" style="rhombus;whiteSpace=wrap;html=1;" vertex="1" parent="1">
          <mxGeometry x="415" y="300" width="80" height="50" as="geometry" />
        </mxCell>
        <mxCell id="VKCqac1NkRgXkJCxuq_p-28" style="edgeStyle=orthogonalEdgeStyle;rounded=0;orthogonalLoop=1;jettySize=auto;html=1;entryX=-0.008;entryY=0.149;entryDx=0;entryDy=0;entryPerimeter=0;exitX=1;exitY=0.5;exitDx=0;exitDy=0;" edge="1" parent="1" source="VKCqac1NkRgXkJCxuq_p-30" target="VKCqac1NkRgXkJCxuq_p-14">
          <mxGeometry relative="1" as="geometry">
            <Array as="points">
              <mxPoint x="375" y="325" />
              <mxPoint x="375" y="389" />
            </Array>
          </mxGeometry>
        </mxCell>
        <mxCell id="VKCqac1NkRgXkJCxuq_p-29" style="edgeStyle=orthogonalEdgeStyle;rounded=0;orthogonalLoop=1;jettySize=auto;html=1;entryX=1;entryY=0.75;entryDx=0;entryDy=0;" edge="1" parent="1" source="VKCqac1NkRgXkJCxuq_p-30" target="VKCqac1NkRgXkJCxuq_p-1">
          <mxGeometry relative="1" as="geometry">
            <Array as="points">
              <mxPoint x="260" y="325" />
              <mxPoint x="260" y="255" />
            </Array>
          </mxGeometry>
        </mxCell>
        <mxCell id="VKCqac1NkRgXkJCxuq_p-30" value="pertence" style="rhombus;whiteSpace=wrap;html=1;" vertex="1" parent="1">
          <mxGeometry x="280" y="300" width="80" height="50" as="geometry" />
        </mxCell>
        <mxCell id="VKCqac1NkRgXkJCxuq_p-31" value="Menu" style="rounded=0;whiteSpace=wrap;html=1;" vertex="1" parent="1">
          <mxGeometry x="660" y="380" width="120" height="60" as="geometry" />
        </mxCell>
        <mxCell id="VKCqac1NkRgXkJCxuq_p-77" style="edgeStyle=orthogonalEdgeStyle;rounded=0;orthogonalLoop=1;jettySize=auto;html=1;entryX=0.5;entryY=1;entryDx=0;entryDy=0;exitX=0.5;exitY=0;exitDx=0;exitDy=0;" edge="1" parent="1" source="VKCqac1NkRgXkJCxuq_p-33" target="VKCqac1NkRgXkJCxuq_p-31">
          <mxGeometry relative="1" as="geometry">
            <Array as="points">
              <mxPoint x="640" y="460" />
              <mxPoint x="720" y="460" />
            </Array>
          </mxGeometry>
        </mxCell>
        <mxCell id="VKCqac1NkRgXkJCxuq_p-33" value="nome_item" style="ellipse;whiteSpace=wrap;html=1;" vertex="1" parent="1">
          <mxGeometry x="600" y="470" width="80" height="60" as="geometry" />
        </mxCell>
        <mxCell id="VKCqac1NkRgXkJCxuq_p-78" style="edgeStyle=orthogonalEdgeStyle;rounded=0;orthogonalLoop=1;jettySize=auto;html=1;entryX=0.5;entryY=1;entryDx=0;entryDy=0;exitX=0.5;exitY=0;exitDx=0;exitDy=0;" edge="1" parent="1" source="VKCqac1NkRgXkJCxuq_p-36" target="VKCqac1NkRgXkJCxuq_p-31">
          <mxGeometry relative="1" as="geometry">
            <Array as="points">
              <mxPoint x="807" y="460" />
              <mxPoint x="720" y="460" />
            </Array>
          </mxGeometry>
        </mxCell>
        <mxCell id="VKCqac1NkRgXkJCxuq_p-36" value="descricao" style="ellipse;whiteSpace=wrap;html=1;" vertex="1" parent="1">
          <mxGeometry x="760" y="470" width="80" height="60" as="geometry" />
        </mxCell>
        <mxCell id="VKCqac1NkRgXkJCxuq_p-79" style="edgeStyle=orthogonalEdgeStyle;rounded=0;orthogonalLoop=1;jettySize=auto;html=1;entryX=0.5;entryY=1;entryDx=0;entryDy=0;" edge="1" parent="1" source="VKCqac1NkRgXkJCxuq_p-38" target="VKCqac1NkRgXkJCxuq_p-31">
          <mxGeometry relative="1" as="geometry" />
        </mxCell>
        <mxCell id="VKCqac1NkRgXkJCxuq_p-38" value="preco" style="ellipse;whiteSpace=wrap;html=1;" vertex="1" parent="1">
          <mxGeometry x="680" y="490" width="80" height="60" as="geometry" />
        </mxCell>
        <mxCell id="VKCqac1NkRgXkJCxuq_p-102" style="edgeStyle=orthogonalEdgeStyle;rounded=0;orthogonalLoop=1;jettySize=auto;html=1;entryX=0.5;entryY=1;entryDx=0;entryDy=0;" edge="1" parent="1" source="VKCqac1NkRgXkJCxuq_p-40" target="VKCqac1NkRgXkJCxuq_p-101">
          <mxGeometry relative="1" as="geometry" />
        </mxCell>
        <mxCell id="VKCqac1NkRgXkJCxuq_p-40" value="Funcionarios" style="rounded=0;whiteSpace=wrap;html=1;" vertex="1" parent="1">
          <mxGeometry x="-35" y="295" width="120" height="60" as="geometry" />
        </mxCell>
        <mxCell id="VKCqac1NkRgXkJCxuq_p-95" style="edgeStyle=orthogonalEdgeStyle;rounded=0;orthogonalLoop=1;jettySize=auto;html=1;entryX=0;entryY=0.5;entryDx=0;entryDy=0;exitX=0.5;exitY=1;exitDx=0;exitDy=0;" edge="1" parent="1" source="VKCqac1NkRgXkJCxuq_p-41" target="VKCqac1NkRgXkJCxuq_p-40">
          <mxGeometry relative="1" as="geometry">
            <Array as="points">
              <mxPoint x="-75" y="305" />
              <mxPoint x="-55" y="305" />
              <mxPoint x="-55" y="325" />
            </Array>
          </mxGeometry>
        </mxCell>
        <mxCell id="VKCqac1NkRgXkJCxuq_p-41" value="nome" style="ellipse;whiteSpace=wrap;html=1;" vertex="1" parent="1">
          <mxGeometry x="-115" y="235" width="80" height="60" as="geometry" />
        </mxCell>
        <mxCell id="VKCqac1NkRgXkJCxuq_p-96" style="edgeStyle=orthogonalEdgeStyle;rounded=0;orthogonalLoop=1;jettySize=auto;html=1;entryX=0;entryY=0.5;entryDx=0;entryDy=0;exitX=0.5;exitY=0;exitDx=0;exitDy=0;" edge="1" parent="1" source="VKCqac1NkRgXkJCxuq_p-45" target="VKCqac1NkRgXkJCxuq_p-40">
          <mxGeometry relative="1" as="geometry">
            <Array as="points">
              <mxPoint x="-75" y="340" />
              <mxPoint x="-55" y="340" />
              <mxPoint x="-55" y="325" />
            </Array>
          </mxGeometry>
        </mxCell>
        <mxCell id="VKCqac1NkRgXkJCxuq_p-45" value="nº tel" style="ellipse;whiteSpace=wrap;html=1;" vertex="1" parent="1">
          <mxGeometry x="-115" y="350" width="80" height="60" as="geometry" />
        </mxCell>
        <mxCell id="VKCqac1NkRgXkJCxuq_p-85" style="edgeStyle=orthogonalEdgeStyle;rounded=0;orthogonalLoop=1;jettySize=auto;html=1;entryX=0.5;entryY=0;entryDx=0;entryDy=0;" edge="1" parent="1" source="VKCqac1NkRgXkJCxuq_p-54" target="VKCqac1NkRgXkJCxuq_p-84">
          <mxGeometry relative="1" as="geometry" />
        </mxCell>
        <mxCell id="VKCqac1NkRgXkJCxuq_p-54" value="Prato" style="rounded=0;whiteSpace=wrap;html=1;" vertex="1" parent="1">
          <mxGeometry x="660" y="210" width="120" height="60" as="geometry" />
        </mxCell>
        <mxCell id="VKCqac1NkRgXkJCxuq_p-86" style="edgeStyle=orthogonalEdgeStyle;rounded=0;orthogonalLoop=1;jettySize=auto;html=1;entryX=0.5;entryY=0;entryDx=0;entryDy=0;" edge="1" parent="1" source="VKCqac1NkRgXkJCxuq_p-84" target="VKCqac1NkRgXkJCxuq_p-31">
          <mxGeometry relative="1" as="geometry" />
        </mxCell>
        <mxCell id="VKCqac1NkRgXkJCxuq_p-84" value="pertence" style="rhombus;whiteSpace=wrap;html=1;" vertex="1" parent="1">
          <mxGeometry x="680" y="300" width="80" height="50" as="geometry" />
        </mxCell>
        <mxCell id="VKCqac1NkRgXkJCxuq_p-91" style="edgeStyle=orthogonalEdgeStyle;rounded=0;orthogonalLoop=1;jettySize=auto;html=1;entryX=0;entryY=0.5;entryDx=0;entryDy=0;" edge="1" parent="1" source="VKCqac1NkRgXkJCxuq_p-88" target="VKCqac1NkRgXkJCxuq_p-54">
          <mxGeometry relative="1" as="geometry" />
        </mxCell>
        <mxCell id="VKCqac1NkRgXkJCxuq_p-88" value="escolhe" style="rhombus;whiteSpace=wrap;html=1;" vertex="1" parent="1">
          <mxGeometry x="550" y="215" width="80" height="50" as="geometry" />
        </mxCell>
        <mxCell id="VKCqac1NkRgXkJCxuq_p-103" style="edgeStyle=orthogonalEdgeStyle;rounded=0;orthogonalLoop=1;jettySize=auto;html=1;entryX=0;entryY=0.5;entryDx=0;entryDy=0;" edge="1" parent="1" source="VKCqac1NkRgXkJCxuq_p-101" target="VKCqac1NkRgXkJCxuq_p-1">
          <mxGeometry relative="1" as="geometry" />
        </mxCell>
        <mxCell id="VKCqac1NkRgXkJCxuq_p-101" value="pertence" style="rhombus;whiteSpace=wrap;html=1;" vertex="1" parent="1">
          <mxGeometry x="-15" y="215" width="80" height="50" as="geometry" />
        </mxCell>
        <mxCell id="VKCqac1NkRgXkJCxuq_p-106" style="edgeStyle=orthogonalEdgeStyle;rounded=0;orthogonalLoop=1;jettySize=auto;html=1;entryX=0.5;entryY=1;entryDx=0;entryDy=0;" edge="1" parent="1" source="VKCqac1NkRgXkJCxuq_p-104" target="VKCqac1NkRgXkJCxuq_p-40">
          <mxGeometry relative="1" as="geometry" />
        </mxCell>
        <mxCell id="VKCqac1NkRgXkJCxuq_p-104" value="gere" style="rhombus;whiteSpace=wrap;html=1;" vertex="1" parent="1">
          <mxGeometry x="-15" y="385" width="80" height="50" as="geometry" />
        </mxCell>
        <mxCell id="VKCqac1NkRgXkJCxuq_p-108" style="edgeStyle=orthogonalEdgeStyle;rounded=0;orthogonalLoop=1;jettySize=auto;html=1;entryX=0.5;entryY=0;entryDx=0;entryDy=0;" edge="1" parent="1" source="VKCqac1NkRgXkJCxuq_p-107" target="VKCqac1NkRgXkJCxuq_p-54">
          <mxGeometry relative="1" as="geometry">
            <Array as="points">
              <mxPoint x="660" y="190" />
              <mxPoint x="720" y="190" />
            </Array>
          </mxGeometry>
        </mxCell>
        <mxCell id="VKCqac1NkRgXkJCxuq_p-107" value="nome" style="ellipse;whiteSpace=wrap;html=1;" vertex="1" parent="1">
          <mxGeometry x="620" y="120" width="80" height="60" as="geometry" />
        </mxCell>
        <mxCell id="VKCqac1NkRgXkJCxuq_p-110" style="edgeStyle=orthogonalEdgeStyle;rounded=0;orthogonalLoop=1;jettySize=auto;html=1;entryX=0.5;entryY=0;entryDx=0;entryDy=0;" edge="1" parent="1" source="VKCqac1NkRgXkJCxuq_p-109" target="VKCqac1NkRgXkJCxuq_p-54">
          <mxGeometry relative="1" as="geometry">
            <Array as="points">
              <mxPoint x="787" y="190" />
              <mxPoint x="720" y="190" />
            </Array>
          </mxGeometry>
        </mxCell>
        <mxCell id="VKCqac1NkRgXkJCxuq_p-109" value="descricao" style="ellipse;whiteSpace=wrap;html=1;" vertex="1" parent="1">
          <mxGeometry x="740" y="120" width="80" height="60" as="geometry" />
        </mxCell>
        <mxCell id="VKCqac1NkRgXkJCxuq_p-112" style="edgeStyle=orthogonalEdgeStyle;rounded=0;orthogonalLoop=1;jettySize=auto;html=1;" edge="1" parent="1" source="VKCqac1NkRgXkJCxuq_p-111">
          <mxGeometry relative="1" as="geometry">
            <mxPoint x="720" y="209.9999999999999" as="targetPoint" />
          </mxGeometry>
        </mxCell>
        <mxCell id="VKCqac1NkRgXkJCxuq_p-111" value="preco" style="ellipse;whiteSpace=wrap;html=1;" vertex="1" parent="1">
          <mxGeometry x="680" y="70" width="80" height="60" as="geometry" />
        </mxCell>
      </root>
    </mxGraphModel>
  </diagram>
</mxfile>
